# xmcd
#
# Track frame offsets:
#	150
#	29098
#	59042
#	83626
#	102107
#	125658
#	142439
#	175535
#	208248
#	234901
#	251108
#	277279
#	295311
#
# Disc length: 4131
#
# Revision: 2
# Processed by: cddbd v1.5.1PL0 Copyright (c) Steve Scherf et al.
# Submitted via: EasyCDDAExtractor 5.0.6
# Normalized: r1:DSETVAR1
#
DISCID=d410210d
DTITLE=Various Artist - DEE JAY MIX CLUB CZERWIEC 2003 PART 3
DYEAR=2003
DGENRE=Acid
TTITLE0=WOOFER FEAT BOYTRONIC - YOU
TTITLE1=ATB - LONG WAY HOME
TTITLE2=56K FEAT BEJAY - SAVE A PRAYER
TTITLE3=PLUMP DJ'S FEAT GARY NUMAN - PRAY 4 U
TTITLE4=CERRONE - THE ONLY ONE
TTITLE5=MADONNA - HOLLYWOOD
TTITLE6=MALOKO - FOREVER MORE
TTITLE7=ROC PROJECT FEAT TINA ARENA - NEVER(PAST TENSE)RMX
TTITLE8=MR PRESIDENT - FOREVER and ONE DAY
TTITLE9=MELANIE C - ON THE HORIZON
TTITLE10=MATASHA ATLAS - EYE OF THE DUCK
TTITLE11=MC SOLAAR - LA LA LA LA
TTITLE12=TATU - HOW SOON IS NOW
EXTD=
EXTT0=
EXTT1=
EXTT2=
EXTT3=
EXTT4=
EXTT5=
EXTT6=
EXTT7=
EXTT8=
EXTT9=
EXTT10=
EXTT11=
EXTT12=
PLAYORDER=
